<svg width="255" height="272" viewBox="0 0 255 272" fill="none" xmlns="http://www.w3.org/2000/svg">
<g clip-path="url(#clip0_5_326)" filter="url(#filter0_d_5_326)">
<path d="M113.021 93.8121C99.061 101.776 94.1995 119.548 102.163 133.509C110.126 147.469 127.899 152.33 141.86 144.367C155.82 136.404 160.681 118.631 152.718 104.671C144.754 90.7102 126.982 85.8487 113.021 93.8121Z" stroke="#FFF085" stroke-width="14.5504" stroke-linecap="round" stroke-linejoin="round"/>
<path d="M163.488 182.283L156.279 169.645" stroke="#FFF085" stroke-width="14.5504" stroke-linecap="round" stroke-linejoin="round"/>
<path d="M98.6023 68.5347L91.3928 55.8959" stroke="#FFF085" stroke-width="14.5504" stroke-linecap="round" stroke-linejoin="round"/>
<path d="M197.604 138.282L183.611 134.454" stroke="#FFF085" stroke-width="14.5504" stroke-linecap="round" stroke-linejoin="round"/>
<path d="M71.27 103.725L57.277 99.8972" stroke="#FFF085" stroke-width="14.5504" stroke-linecap="round" stroke-linejoin="round"/>
<path d="M190.634 83.0419L177.995 90.2514" stroke="#FFF085" stroke-width="14.5504" stroke-linecap="round" stroke-linejoin="round"/>
<path d="M76.8855 147.928L64.2468 155.137" stroke="#FFF085" stroke-width="14.5504" stroke-linecap="round" stroke-linejoin="round"/>
<path d="M142.805 62.9189L146.633 48.9259" stroke="#FFF085" stroke-width="14.5504" stroke-linecap="round" stroke-linejoin="round"/>
<path d="M108.248 189.253L112.076 175.26" stroke="#FFF085" stroke-width="14.5504" stroke-linecap="round" stroke-linejoin="round"/>
</g>
<defs>
<filter id="filter0_d_5_326" x="-41.6492" y="-25" width="338.179" height="338.179" filterUnits="userSpaceOnUse" color-interpolation-filters="sRGB">
<feFlood flood-opacity="0" result="BackgroundImageFix"/>
<feColorMatrix in="SourceAlpha" type="matrix" values="0 0 0 0 0 0 0 0 0 0 0 0 0 0 0 0 0 0 127 0" result="hardAlpha"/>
<feOffset dy="25"/>
<feGaussianBlur stdDeviation="25"/>
<feColorMatrix type="matrix" values="0 0 0 0 0 0 0 0 0 0 0 0 0 0 0 0 0 0 0.15 0"/>
<feBlend mode="normal" in2="BackgroundImageFix" result="effect1_dropShadow_5_326"/>
<feBlend mode="normal" in="SourceGraphic" in2="effect1_dropShadow_5_326" result="shape"/>
</filter>
<clipPath id="clip0_5_326">
<rect width="174.605" height="174.605" fill="white" transform="translate(246.53 151.665) rotate(150.298)"/>
</clipPath>
</defs>
</svg>
