<svg width="50" height="50" viewBox="0 0 50 50" fill="none" xmlns="http://www.w3.org/2000/svg">
<path d="M9.0415 6.11458L6.104 9.05208L15.1873 18.1354L14.5832 18.7604H6.24984V31.2604H14.5832L24.9998 41.6771V27.9479L33.7082 36.6562C32.354 37.6771 30.8332 38.4896 29.1665 38.9687V43.2604C31.9582 42.6354 34.5207 41.3437 36.6873 39.6146L40.9582 43.8854L43.8957 40.9479L9.0415 6.11458ZM20.8332 31.6146L16.3123 27.0937H10.4165V22.9271H16.3123L18.1457 21.0937L20.8332 23.7812V31.6146ZM39.5832 25.0104C39.5832 26.7187 39.2707 28.3646 38.729 29.8854L41.9165 33.0729C43.0832 30.6354 43.7498 27.9062 43.7498 25.0104C43.7498 16.0937 37.5207 8.63541 29.1665 6.73958V11.0312C35.1873 12.8229 39.5832 18.4062 39.5832 25.0104ZM24.9998 8.34374L21.0832 12.2604L24.9998 16.1771V8.34374ZM34.3748 25.0104C34.3748 21.3229 32.2498 18.1562 29.1665 16.6146V20.3437L34.3332 25.5104C34.354 25.3437 34.3748 25.1771 34.3748 25.0104Z" fill="white" fill-opacity="0.6"/>
</svg>
