<svg width="50" height="50" viewBox="0 0 50 50" fill="none" xmlns="http://www.w3.org/2000/svg">
<path d="M6.25 18.75V31.25H14.5833L25 41.6667V8.33334L14.5833 18.75H6.25ZM20.8333 18.3958V31.6042L16.3125 27.0833H10.4167V22.9167H16.3125L20.8333 18.3958ZM34.375 25C34.375 21.3125 32.25 18.1458 29.1667 16.6042V33.375C32.25 31.8542 34.375 28.6875 34.375 25ZM29.1667 6.72917V11.0208C35.1875 12.8125 39.5833 18.3958 39.5833 25C39.5833 31.6042 35.1875 37.1875 29.1667 38.9792V43.2708C37.5208 41.375 43.75 33.9167 43.75 25C43.75 16.0833 37.5208 8.62501 29.1667 6.72917Z" fill="white" fill-opacity="0.6"/>
</svg>
